<svg xmlns="http://www.w3.org/2000/svg" width="86.812" height="96" viewBox="0 0 86.812 96">
  <metadata><?xpacket begin="﻿" id="W5M0MpCehiHzreSzNTczkc9d"?>
<x:xmpmeta xmlns:x="adobe:ns:meta/" x:xmptk="Adobe XMP Core 5.6-c140 79.160451, 2017/05/06-01:08:21        ">
   <rdf:RDF xmlns:rdf="http://www.w3.org/1999/02/22-rdf-syntax-ns#">
      <rdf:Description rdf:about=""/>
   </rdf:RDF>
</x:xmpmeta>
                                                                                                    
                                                                                                    
                                                                                                    
                                                                                                    
                                                                                                    
                                                                                                    
                                                                                                    
                                                                                                    
                                                                                                    
                                                                                                    
                                                                                                    
                                                                                                    
                                                                                                    
                                                                                                    
                                                                                                    
                                                                                                    
                                                                                                    
                                                                                                    
                                                                                                    
                                                                                                    
                           
<?xpacket end="w"?></metadata>
<defs>
    <style>
      .cls-1 {
        fill: #f9f9f9;
        fill-rule: evenodd;
      }
    </style>
  </defs>
  <path id="Icon" class="cls-1" d="M949.608,923.9l-2.263-10.725a30.134,30.134,0,0,0-18.269-22.049L925.2,889.6a33.721,33.721,0,0,0,4.4-16.888c0-24.982-14.276-28.715-22.785-28.715s-22.784,3.733-22.784,28.715a33.773,33.773,0,0,0,4.277,16.684l-4.395,1.728a30.138,30.138,0,0,0-18.269,22.049L863.378,923.9A13.581,13.581,0,0,0,866,935.192,12.517,12.517,0,0,0,875.828,940h61.334a12.523,12.523,0,0,0,9.825-4.809A13.565,13.565,0,0,0,949.608,923.9Zm-42.8-72.221c6.54,0,15.234,2.182,15.234,21.035,0,11.6-6.835,21.035-15.234,21.035s-15.234-9.434-15.234-21.035C891.578,853.861,900.272,851.679,906.812,851.679Zm34.3,78.683a4.978,4.978,0,0,1-3.952,1.959H875.828a4.978,4.978,0,0,1-3.952-1.959,5.83,5.83,0,0,1-1.117-4.849l2.264-10.727a22.513,22.513,0,0,1,13.612-16.5l6.581-2.584a18.989,18.989,0,0,0,27.007.17l6.125,2.414a22.511,22.511,0,0,1,13.616,16.5l2.263,10.727A5.827,5.827,0,0,1,941.114,930.362Z" transform="translate(-863.094 -844)"/>
</svg>
