<svg xmlns="http://www.w3.org/2000/svg" width="103" height="103" viewBox="0 0 103 103">
  <metadata><?xpacket begin="﻿" id="W5M0MpCehiHzreSzNTczkc9d"?>
<x:xmpmeta xmlns:x="adobe:ns:meta/" x:xmptk="Adobe XMP Core 5.6-c140 79.160451, 2017/05/06-01:08:21        ">
   <rdf:RDF xmlns:rdf="http://www.w3.org/1999/02/22-rdf-syntax-ns#">
      <rdf:Description rdf:about=""/>
   </rdf:RDF>
</x:xmpmeta>
                                                                                                    
                                                                                                    
                                                                                                    
                                                                                                    
                                                                                                    
                                                                                                    
                                                                                                    
                                                                                                    
                                                                                                    
                                                                                                    
                                                                                                    
                                                                                                    
                                                                                                    
                                                                                                    
                                                                                                    
                                                                                                    
                                                                                                    
                                                                                                    
                                                                                                    
                                                                                                    
                           
<?xpacket end="w"?></metadata>
<defs>
    <style>
      .cls-1 {
        fill: #f9f9f9;
        fill-rule: evenodd;
      }
    </style>
  </defs>
  <path id="Icon" class="cls-1" d="M285.5,840A51.5,51.5,0,1,0,337,891.5,51.56,51.56,0,0,0,285.5,840Zm0,94.762A43.26,43.26,0,1,1,328.76,891.5,43.307,43.307,0,0,1,285.5,934.761Zm0-77.322A34.06,34.06,0,1,0,319.663,891.5,34.151,34.151,0,0,0,285.5,857.439Zm0,59.879A25.82,25.82,0,1,1,311.423,891.5,25.9,25.9,0,0,1,285.5,917.318Zm10.308-29.94H289.62v-7.22a4.12,4.12,0,0,0-8.24,0V891.5a4.121,4.121,0,0,0,4.12,4.118h10.308A4.122,4.122,0,0,0,295.808,887.378Z" transform="translate(-234 -840)"/>
</svg>
